<svg width="160" height="40" viewBox="0 0 160 40" fill="none" xmlns="http://www.w3.org/2000/svg"><path d="M35.117 28.405c-1.702 0-3.027-.43-3.977-1.29-.95-.878-1.424-2.177-1.424-3.897V10.533h4.192v12.631c0 .61.161 1.084.484 1.424.322.323.761.484 1.317.484.663 0 1.227-.179 1.693-.537l1.129 2.956c-.43.305-.95.537-1.56.699a7.846 7.846 0 0 1-1.853.215Zm-7.632-11.127v-3.224h10.024v3.225H27.485ZM49.753 28.19v-2.822l-.27-.618v-5.053c0-.896-.277-1.594-.832-2.096-.538-.502-1.37-.752-2.5-.752a7.18 7.18 0 0 0-2.284.376c-.734.233-1.362.555-1.881.967l-1.505-2.93c.788-.555 1.738-.985 2.849-1.29 1.11-.304 2.24-.456 3.386-.456 2.203 0 3.914.52 5.133 1.559 1.218 1.039 1.827 2.66 1.827 4.864v8.25h-3.923Zm-4.408.215c-1.129 0-2.096-.189-2.902-.565-.806-.394-1.425-.922-1.855-1.585a4.01 4.01 0 0 1-.645-2.23c0-.86.206-1.613.619-2.258.43-.645 1.101-1.147 2.015-1.505.914-.377 2.105-.565 3.574-.565h3.843v2.446h-3.386c-.985 0-1.666.161-2.042.484a1.56 1.56 0 0 0-.538 1.209c0 .538.206.967.618 1.29.43.304 1.013.457 1.747.457.699 0 1.326-.161 1.882-.484.555-.34.958-.833 1.209-1.478l.645 1.935c-.305.932-.86 1.64-1.666 2.123-.807.484-1.846.726-3.118.726ZM66.017 28.405c-1.218 0-2.284-.27-3.198-.807-.914-.537-1.63-1.352-2.15-2.445-.502-1.111-.753-2.508-.753-4.193 0-1.702.242-3.1.726-4.192.484-1.093 1.182-1.908 2.096-2.446.914-.537 2.007-.806 3.279-.806 1.362 0 2.58.314 3.655.94a6.614 6.614 0 0 1 2.58 2.58c.645 1.111.967 2.42.967 3.924 0 1.523-.322 2.84-.967 3.95a6.614 6.614 0 0 1-2.58 2.58c-1.075.61-2.293.915-3.655.915Zm-8.546 4.998V13.731h4.004v2.956l-.08 4.3.268 4.273v8.143h-4.192Zm7.82-8.438c.699 0 1.317-.162 1.855-.484.555-.323.994-.78 1.317-1.37.34-.61.51-1.326.51-2.15 0-.843-.17-1.56-.51-2.15a3.466 3.466 0 0 0-1.317-1.371c-.538-.323-1.156-.484-1.855-.484-.698 0-1.326.161-1.881.484-.555.322-.994.78-1.317 1.37-.322.592-.484 1.308-.484 2.15 0 .825.162 1.541.484 2.15a3.465 3.465 0 0 0 1.317 1.37c.555.323 1.183.485 1.881.485ZM104.869 28.19V8.249h4.192v19.94h-4.192ZM119.832 28.405c-1.541 0-2.911-.323-4.112-.968a7.527 7.527 0 0 1-2.821-2.634c-.681-1.128-1.022-2.41-1.022-3.843 0-1.45.341-2.732 1.022-3.843a7.253 7.253 0 0 1 2.821-2.633c1.201-.645 2.571-.968 4.112-.968 1.523 0 2.885.323 4.085.968 1.201.627 2.141 1.496 2.822 2.606.681 1.111 1.021 2.401 1.021 3.87 0 1.434-.34 2.715-1.021 3.843-.681 1.111-1.621 1.99-2.822 2.634-1.2.645-2.562.968-4.085.968Zm0-3.44c.699 0 1.326-.162 1.881-.484.556-.323.995-.78 1.317-1.37.323-.61.484-1.326.484-2.15 0-.843-.161-1.56-.484-2.15a3.459 3.459 0 0 0-1.317-1.371c-.555-.323-1.182-.484-1.881-.484-.699 0-1.326.161-1.881.484a3.665 3.665 0 0 0-1.344 1.37c-.322.592-.484 1.308-.484 2.15 0 .825.162 1.541.484 2.15a3.664 3.664 0 0 0 1.344 1.37c.555.323 1.182.485 1.881.485ZM134.093 28.19l-6.074-14.459h4.327l5.052 12.443h-2.15l5.241-12.443h4.031l-6.101 14.459h-4.326ZM153.013 28.405c-1.649 0-3.1-.323-4.354-.968-1.236-.645-2.195-1.523-2.876-2.634-.681-1.128-1.021-2.41-1.021-3.843 0-1.45.332-2.732.994-3.843a7.113 7.113 0 0 1 2.769-2.633c1.164-.645 2.481-.968 3.95-.968 1.416 0 2.688.305 3.816.914a6.602 6.602 0 0 1 2.715 2.58c.663 1.11.994 2.445.994 4.004 0 .161-.009.35-.027.564l-.054.565h-11.744v-2.446h9.541l-1.613.726c0-.753-.152-1.407-.457-1.962a3.235 3.235 0 0 0-1.263-1.29c-.537-.322-1.164-.484-1.881-.484-.717 0-1.353.162-1.908.484a3.193 3.193 0 0 0-1.263 1.317c-.305.555-.457 1.218-.457 1.989v.645c0 .788.17 1.487.511 2.096a3.634 3.634 0 0 0 1.478 1.37c.645.305 1.397.457 2.257.457.771 0 1.442-.116 2.016-.35a4.905 4.905 0 0 0 1.612-1.047l2.231 2.419c-.663.752-1.496 1.334-2.5 1.746-1.003.395-2.158.592-3.466.592Z" fill="#fff"/><path d="M81.938 28.405c-1.702 0-3.028-.43-3.977-1.29-.95-.878-1.425-2.177-1.425-3.897V10.533h4.193v12.631c0 .61.161 1.084.484 1.424.322.323.761.484 1.316.484.663 0 1.228-.179 1.694-.537l1.128 2.956c-.43.305-.95.537-1.558.699a7.847 7.847 0 0 1-1.855.215Zm-7.632-11.127v-3.224H84.33v3.225H74.306ZM94.138 28.405c-1.54 0-2.91-.323-4.111-.968a7.532 7.532 0 0 1-2.822-2.634c-.681-1.128-1.021-2.41-1.021-3.843 0-1.45.34-2.732 1.02-3.843a7.258 7.258 0 0 1 2.823-2.633c1.2-.645 2.57-.968 4.111-.968 1.523 0 2.885.323 4.085.968 1.2.627 2.141 1.496 2.822 2.606.681 1.111 1.022 2.401 1.022 3.87 0 1.434-.341 2.715-1.022 3.843-.681 1.111-1.621 1.99-2.822 2.634-1.2.645-2.562.968-4.085.968Zm0-3.44c.7 0 1.326-.162 1.882-.484.555-.323.994-.78 1.317-1.37.322-.61.483-1.326.483-2.15 0-.843-.16-1.56-.483-2.15a3.467 3.467 0 0 0-1.317-1.371c-.556-.323-1.183-.484-1.882-.484-.698 0-1.325.161-1.88.484a3.658 3.658 0 0 0-1.344 1.37c-.323.592-.484 1.308-.484 2.15 0 .825.161 1.541.483 2.15.34.592.789 1.049 1.344 1.371.556.322 1.183.484 1.881.484Z" fill="#D62C5C"/><path fill-rule="evenodd" clip-rule="evenodd" d="M10.95 26.288c-1.04-1.57-3.12-.651-3.12 1.06 0 1.157 1.039 1.983 1.82 2.605.812.647 1.04.785 1.3 1.047.26-.262.478-.414 1.3-1.047.792-.61 1.82-1.46 1.82-2.618 0-1.698-2.08-2.618-3.12-1.047Z" fill="#fff"/><path fill-rule="evenodd" clip-rule="evenodd" d="M.028 17.015c-.019.259-.028.52-.028.785v3.54C2.517 18.088 6.42 16 10.8 16c4.38 0 8.283 2.088 10.8 5.34V17.8c0-.264-.01-.526-.028-.785C18.665 14.51 14.906 13 10.8 13 6.695 13 2.935 14.51.028 17.015Zm1.407-4.598A19.267 19.267 0 0 1 10.8 10c3.391 0 6.581.876 9.365 2.417A10.796 10.796 0 0 0 10.8 7c-4.005 0-7.5 2.18-9.365 5.417ZM18.594 31c1.128-.047 1.818-.2 2.304-.694.37-.377.545-.876.628-1.6C20.896 23.24 16.334 19 10.8 19 5.266 19 .704 23.24.074 28.706c.083.724.258 1.223.628 1.6.486.494 1.176.647 2.304.694-.04-.327-.06-.66-.06-.998 0-4.419 3.516-8 7.854-8s7.854 3.581 7.854 8c0 .338-.02.67-.06.998Z" fill="url(#a)"/><defs><linearGradient id="a" x1="0" y1="5.588" x2="5.157" y2="38.697" gradientUnits="userSpaceOnUse"><stop stop-color="#E3383E"/><stop offset="1" stop-color="#B9119E"/></linearGradient></defs></svg>